%TF.GenerationSoftware,KiCad,Pcbnew,9.0.6*%
%TF.CreationDate,2025-11-15T17:29:32-05:00*%
%TF.ProjectId,CANopus,43414e6f-7075-4732-9e6b-696361645f70,rev?*%
%TF.SameCoordinates,Original*%
%TF.FileFunction,Legend,Top*%
%TF.FilePolarity,Positive*%
%FSLAX46Y46*%
G04 Gerber Fmt 4.6, Leading zero omitted, Abs format (unit mm)*
G04 Created by KiCad (PCBNEW 9.0.6) date 2025-11-15 17:29:32*
%MOMM*%
%LPD*%
G01*
G04 APERTURE LIST*
G04 Aperture macros list*
%AMRoundRect*
0 Rectangle with rounded corners*
0 $1 Rounding radius*
0 $2 $3 $4 $5 $6 $7 $8 $9 X,Y pos of 4 corners*
0 Add a 4 corners polygon primitive as box body*
4,1,4,$2,$3,$4,$5,$6,$7,$8,$9,$2,$3,0*
0 Add four circle primitives for the rounded corners*
1,1,$1+$1,$2,$3*
1,1,$1+$1,$4,$5*
1,1,$1+$1,$6,$7*
1,1,$1+$1,$8,$9*
0 Add four rect primitives between the rounded corners*
20,1,$1+$1,$2,$3,$4,$5,0*
20,1,$1+$1,$4,$5,$6,$7,0*
20,1,$1+$1,$6,$7,$8,$9,0*
20,1,$1+$1,$8,$9,$2,$3,0*%
G04 Aperture macros list end*
%ADD10C,0.150000*%
%ADD11C,0.200000*%
%ADD12C,0.240000*%
%ADD13C,0.120000*%
%ADD14C,0.950000*%
%ADD15RoundRect,0.102000X-0.310000X-0.700000X0.310000X-0.700000X0.310000X0.700000X-0.310000X0.700000X0*%
%ADD16RoundRect,0.102000X-0.550000X-1.200000X0.550000X-1.200000X0.550000X1.200000X-0.550000X1.200000X0*%
%ADD17RoundRect,0.150000X-0.512500X-0.150000X0.512500X-0.150000X0.512500X0.150000X-0.512500X0.150000X0*%
%ADD18RoundRect,0.237500X-0.300000X-0.237500X0.300000X-0.237500X0.300000X0.237500X-0.300000X0.237500X0*%
%ADD19RoundRect,0.075000X-0.675000X-0.075000X0.675000X-0.075000X0.675000X0.075000X-0.675000X0.075000X0*%
%ADD20RoundRect,0.075000X-0.075000X-0.675000X0.075000X-0.675000X0.075000X0.675000X-0.075000X0.675000X0*%
%ADD21RoundRect,0.237500X-0.287500X-0.237500X0.287500X-0.237500X0.287500X0.237500X-0.287500X0.237500X0*%
%ADD22RoundRect,0.237500X-0.250000X-0.237500X0.250000X-0.237500X0.250000X0.237500X-0.250000X0.237500X0*%
%ADD23C,0.650000*%
%ADD24RoundRect,0.150000X-0.150000X-0.425000X0.150000X-0.425000X0.150000X0.425000X-0.150000X0.425000X0*%
%ADD25RoundRect,0.075000X-0.075000X-0.500000X0.075000X-0.500000X0.075000X0.500000X-0.075000X0.500000X0*%
%ADD26O,1.000000X2.100000*%
%ADD27O,1.000000X1.800000*%
%ADD28RoundRect,0.162500X-0.650000X-0.162500X0.650000X-0.162500X0.650000X0.162500X-0.650000X0.162500X0*%
%ADD29RoundRect,0.250000X-1.050000X-0.550000X1.050000X-0.550000X1.050000X0.550000X-1.050000X0.550000X0*%
%ADD30R,2.000000X2.000000*%
%ADD31C,2.000000*%
G04 APERTURE END LIST*
D10*
X195166666Y-72954819D02*
X195166666Y-73669104D01*
X195166666Y-73669104D02*
X195119047Y-73811961D01*
X195119047Y-73811961D02*
X195023809Y-73907200D01*
X195023809Y-73907200D02*
X194880952Y-73954819D01*
X194880952Y-73954819D02*
X194785714Y-73954819D01*
X195595238Y-73050057D02*
X195642857Y-73002438D01*
X195642857Y-73002438D02*
X195738095Y-72954819D01*
X195738095Y-72954819D02*
X195976190Y-72954819D01*
X195976190Y-72954819D02*
X196071428Y-73002438D01*
X196071428Y-73002438D02*
X196119047Y-73050057D01*
X196119047Y-73050057D02*
X196166666Y-73145295D01*
X196166666Y-73145295D02*
X196166666Y-73240533D01*
X196166666Y-73240533D02*
X196119047Y-73383390D01*
X196119047Y-73383390D02*
X195547619Y-73954819D01*
X195547619Y-73954819D02*
X196166666Y-73954819D01*
X174166666Y-72954819D02*
X174166666Y-73669104D01*
X174166666Y-73669104D02*
X174119047Y-73811961D01*
X174119047Y-73811961D02*
X174023809Y-73907200D01*
X174023809Y-73907200D02*
X173880952Y-73954819D01*
X173880952Y-73954819D02*
X173785714Y-73954819D01*
X175166666Y-73954819D02*
X174595238Y-73954819D01*
X174880952Y-73954819D02*
X174880952Y-72954819D01*
X174880952Y-72954819D02*
X174785714Y-73097676D01*
X174785714Y-73097676D02*
X174690476Y-73192914D01*
X174690476Y-73192914D02*
X174595238Y-73240533D01*
X73100595Y-59104819D02*
X73100595Y-59914342D01*
X73100595Y-59914342D02*
X73148214Y-60009580D01*
X73148214Y-60009580D02*
X73195833Y-60057200D01*
X73195833Y-60057200D02*
X73291071Y-60104819D01*
X73291071Y-60104819D02*
X73481547Y-60104819D01*
X73481547Y-60104819D02*
X73576785Y-60057200D01*
X73576785Y-60057200D02*
X73624404Y-60009580D01*
X73624404Y-60009580D02*
X73672023Y-59914342D01*
X73672023Y-59914342D02*
X73672023Y-59104819D01*
X74195833Y-60104819D02*
X74386309Y-60104819D01*
X74386309Y-60104819D02*
X74481547Y-60057200D01*
X74481547Y-60057200D02*
X74529166Y-60009580D01*
X74529166Y-60009580D02*
X74624404Y-59866723D01*
X74624404Y-59866723D02*
X74672023Y-59676247D01*
X74672023Y-59676247D02*
X74672023Y-59295295D01*
X74672023Y-59295295D02*
X74624404Y-59200057D01*
X74624404Y-59200057D02*
X74576785Y-59152438D01*
X74576785Y-59152438D02*
X74481547Y-59104819D01*
X74481547Y-59104819D02*
X74291071Y-59104819D01*
X74291071Y-59104819D02*
X74195833Y-59152438D01*
X74195833Y-59152438D02*
X74148214Y-59200057D01*
X74148214Y-59200057D02*
X74100595Y-59295295D01*
X74100595Y-59295295D02*
X74100595Y-59533390D01*
X74100595Y-59533390D02*
X74148214Y-59628628D01*
X74148214Y-59628628D02*
X74195833Y-59676247D01*
X74195833Y-59676247D02*
X74291071Y-59723866D01*
X74291071Y-59723866D02*
X74481547Y-59723866D01*
X74481547Y-59723866D02*
X74576785Y-59676247D01*
X74576785Y-59676247D02*
X74624404Y-59628628D01*
X74624404Y-59628628D02*
X74672023Y-59533390D01*
X66494642Y-79959580D02*
X66447023Y-80007200D01*
X66447023Y-80007200D02*
X66304166Y-80054819D01*
X66304166Y-80054819D02*
X66208928Y-80054819D01*
X66208928Y-80054819D02*
X66066071Y-80007200D01*
X66066071Y-80007200D02*
X65970833Y-79911961D01*
X65970833Y-79911961D02*
X65923214Y-79816723D01*
X65923214Y-79816723D02*
X65875595Y-79626247D01*
X65875595Y-79626247D02*
X65875595Y-79483390D01*
X65875595Y-79483390D02*
X65923214Y-79292914D01*
X65923214Y-79292914D02*
X65970833Y-79197676D01*
X65970833Y-79197676D02*
X66066071Y-79102438D01*
X66066071Y-79102438D02*
X66208928Y-79054819D01*
X66208928Y-79054819D02*
X66304166Y-79054819D01*
X66304166Y-79054819D02*
X66447023Y-79102438D01*
X66447023Y-79102438D02*
X66494642Y-79150057D01*
X66827976Y-79054819D02*
X67447023Y-79054819D01*
X67447023Y-79054819D02*
X67113690Y-79435771D01*
X67113690Y-79435771D02*
X67256547Y-79435771D01*
X67256547Y-79435771D02*
X67351785Y-79483390D01*
X67351785Y-79483390D02*
X67399404Y-79531009D01*
X67399404Y-79531009D02*
X67447023Y-79626247D01*
X67447023Y-79626247D02*
X67447023Y-79864342D01*
X67447023Y-79864342D02*
X67399404Y-79959580D01*
X67399404Y-79959580D02*
X67351785Y-80007200D01*
X67351785Y-80007200D02*
X67256547Y-80054819D01*
X67256547Y-80054819D02*
X66970833Y-80054819D01*
X66970833Y-80054819D02*
X66875595Y-80007200D01*
X66875595Y-80007200D02*
X66827976Y-79959580D01*
X68018452Y-79483390D02*
X67923214Y-79435771D01*
X67923214Y-79435771D02*
X67875595Y-79388152D01*
X67875595Y-79388152D02*
X67827976Y-79292914D01*
X67827976Y-79292914D02*
X67827976Y-79245295D01*
X67827976Y-79245295D02*
X67875595Y-79150057D01*
X67875595Y-79150057D02*
X67923214Y-79102438D01*
X67923214Y-79102438D02*
X68018452Y-79054819D01*
X68018452Y-79054819D02*
X68208928Y-79054819D01*
X68208928Y-79054819D02*
X68304166Y-79102438D01*
X68304166Y-79102438D02*
X68351785Y-79150057D01*
X68351785Y-79150057D02*
X68399404Y-79245295D01*
X68399404Y-79245295D02*
X68399404Y-79292914D01*
X68399404Y-79292914D02*
X68351785Y-79388152D01*
X68351785Y-79388152D02*
X68304166Y-79435771D01*
X68304166Y-79435771D02*
X68208928Y-79483390D01*
X68208928Y-79483390D02*
X68018452Y-79483390D01*
X68018452Y-79483390D02*
X67923214Y-79531009D01*
X67923214Y-79531009D02*
X67875595Y-79578628D01*
X67875595Y-79578628D02*
X67827976Y-79673866D01*
X67827976Y-79673866D02*
X67827976Y-79864342D01*
X67827976Y-79864342D02*
X67875595Y-79959580D01*
X67875595Y-79959580D02*
X67923214Y-80007200D01*
X67923214Y-80007200D02*
X68018452Y-80054819D01*
X68018452Y-80054819D02*
X68208928Y-80054819D01*
X68208928Y-80054819D02*
X68304166Y-80007200D01*
X68304166Y-80007200D02*
X68351785Y-79959580D01*
X68351785Y-79959580D02*
X68399404Y-79864342D01*
X68399404Y-79864342D02*
X68399404Y-79673866D01*
X68399404Y-79673866D02*
X68351785Y-79578628D01*
X68351785Y-79578628D02*
X68304166Y-79531009D01*
X68304166Y-79531009D02*
X68208928Y-79483390D01*
X134563095Y-87824819D02*
X134563095Y-88634342D01*
X134563095Y-88634342D02*
X134610714Y-88729580D01*
X134610714Y-88729580D02*
X134658333Y-88777200D01*
X134658333Y-88777200D02*
X134753571Y-88824819D01*
X134753571Y-88824819D02*
X134944047Y-88824819D01*
X134944047Y-88824819D02*
X135039285Y-88777200D01*
X135039285Y-88777200D02*
X135086904Y-88729580D01*
X135086904Y-88729580D02*
X135134523Y-88634342D01*
X135134523Y-88634342D02*
X135134523Y-87824819D01*
X135563095Y-87920057D02*
X135610714Y-87872438D01*
X135610714Y-87872438D02*
X135705952Y-87824819D01*
X135705952Y-87824819D02*
X135944047Y-87824819D01*
X135944047Y-87824819D02*
X136039285Y-87872438D01*
X136039285Y-87872438D02*
X136086904Y-87920057D01*
X136086904Y-87920057D02*
X136134523Y-88015295D01*
X136134523Y-88015295D02*
X136134523Y-88110533D01*
X136134523Y-88110533D02*
X136086904Y-88253390D01*
X136086904Y-88253390D02*
X135515476Y-88824819D01*
X135515476Y-88824819D02*
X136134523Y-88824819D01*
X76136905Y-85524819D02*
X76136905Y-84524819D01*
X76136905Y-84524819D02*
X76375000Y-84524819D01*
X76375000Y-84524819D02*
X76517857Y-84572438D01*
X76517857Y-84572438D02*
X76613095Y-84667676D01*
X76613095Y-84667676D02*
X76660714Y-84762914D01*
X76660714Y-84762914D02*
X76708333Y-84953390D01*
X76708333Y-84953390D02*
X76708333Y-85096247D01*
X76708333Y-85096247D02*
X76660714Y-85286723D01*
X76660714Y-85286723D02*
X76613095Y-85381961D01*
X76613095Y-85381961D02*
X76517857Y-85477200D01*
X76517857Y-85477200D02*
X76375000Y-85524819D01*
X76375000Y-85524819D02*
X76136905Y-85524819D01*
X77041667Y-84524819D02*
X77660714Y-84524819D01*
X77660714Y-84524819D02*
X77327381Y-84905771D01*
X77327381Y-84905771D02*
X77470238Y-84905771D01*
X77470238Y-84905771D02*
X77565476Y-84953390D01*
X77565476Y-84953390D02*
X77613095Y-85001009D01*
X77613095Y-85001009D02*
X77660714Y-85096247D01*
X77660714Y-85096247D02*
X77660714Y-85334342D01*
X77660714Y-85334342D02*
X77613095Y-85429580D01*
X77613095Y-85429580D02*
X77565476Y-85477200D01*
X77565476Y-85477200D02*
X77470238Y-85524819D01*
X77470238Y-85524819D02*
X77184524Y-85524819D01*
X77184524Y-85524819D02*
X77089286Y-85477200D01*
X77089286Y-85477200D02*
X77041667Y-85429580D01*
X66494642Y-87584819D02*
X66161309Y-87108628D01*
X65923214Y-87584819D02*
X65923214Y-86584819D01*
X65923214Y-86584819D02*
X66304166Y-86584819D01*
X66304166Y-86584819D02*
X66399404Y-86632438D01*
X66399404Y-86632438D02*
X66447023Y-86680057D01*
X66447023Y-86680057D02*
X66494642Y-86775295D01*
X66494642Y-86775295D02*
X66494642Y-86918152D01*
X66494642Y-86918152D02*
X66447023Y-87013390D01*
X66447023Y-87013390D02*
X66399404Y-87061009D01*
X66399404Y-87061009D02*
X66304166Y-87108628D01*
X66304166Y-87108628D02*
X65923214Y-87108628D01*
X66875595Y-86680057D02*
X66923214Y-86632438D01*
X66923214Y-86632438D02*
X67018452Y-86584819D01*
X67018452Y-86584819D02*
X67256547Y-86584819D01*
X67256547Y-86584819D02*
X67351785Y-86632438D01*
X67351785Y-86632438D02*
X67399404Y-86680057D01*
X67399404Y-86680057D02*
X67447023Y-86775295D01*
X67447023Y-86775295D02*
X67447023Y-86870533D01*
X67447023Y-86870533D02*
X67399404Y-87013390D01*
X67399404Y-87013390D02*
X66827976Y-87584819D01*
X66827976Y-87584819D02*
X67447023Y-87584819D01*
X68018452Y-87013390D02*
X67923214Y-86965771D01*
X67923214Y-86965771D02*
X67875595Y-86918152D01*
X67875595Y-86918152D02*
X67827976Y-86822914D01*
X67827976Y-86822914D02*
X67827976Y-86775295D01*
X67827976Y-86775295D02*
X67875595Y-86680057D01*
X67875595Y-86680057D02*
X67923214Y-86632438D01*
X67923214Y-86632438D02*
X68018452Y-86584819D01*
X68018452Y-86584819D02*
X68208928Y-86584819D01*
X68208928Y-86584819D02*
X68304166Y-86632438D01*
X68304166Y-86632438D02*
X68351785Y-86680057D01*
X68351785Y-86680057D02*
X68399404Y-86775295D01*
X68399404Y-86775295D02*
X68399404Y-86822914D01*
X68399404Y-86822914D02*
X68351785Y-86918152D01*
X68351785Y-86918152D02*
X68304166Y-86965771D01*
X68304166Y-86965771D02*
X68208928Y-87013390D01*
X68208928Y-87013390D02*
X68018452Y-87013390D01*
X68018452Y-87013390D02*
X67923214Y-87061009D01*
X67923214Y-87061009D02*
X67875595Y-87108628D01*
X67875595Y-87108628D02*
X67827976Y-87203866D01*
X67827976Y-87203866D02*
X67827976Y-87394342D01*
X67827976Y-87394342D02*
X67875595Y-87489580D01*
X67875595Y-87489580D02*
X67923214Y-87537200D01*
X67923214Y-87537200D02*
X68018452Y-87584819D01*
X68018452Y-87584819D02*
X68208928Y-87584819D01*
X68208928Y-87584819D02*
X68304166Y-87537200D01*
X68304166Y-87537200D02*
X68351785Y-87489580D01*
X68351785Y-87489580D02*
X68399404Y-87394342D01*
X68399404Y-87394342D02*
X68399404Y-87203866D01*
X68399404Y-87203866D02*
X68351785Y-87108628D01*
X68351785Y-87108628D02*
X68304166Y-87061009D01*
X68304166Y-87061009D02*
X68208928Y-87013390D01*
X72190476Y-91454819D02*
X72190476Y-92169104D01*
X72190476Y-92169104D02*
X72142857Y-92311961D01*
X72142857Y-92311961D02*
X72047619Y-92407200D01*
X72047619Y-92407200D02*
X71904762Y-92454819D01*
X71904762Y-92454819D02*
X71809524Y-92454819D01*
X73190476Y-92454819D02*
X72619048Y-92454819D01*
X72904762Y-92454819D02*
X72904762Y-91454819D01*
X72904762Y-91454819D02*
X72809524Y-91597676D01*
X72809524Y-91597676D02*
X72714286Y-91692914D01*
X72714286Y-91692914D02*
X72619048Y-91740533D01*
X73523810Y-91454819D02*
X74190476Y-91454819D01*
X74190476Y-91454819D02*
X73761905Y-92454819D01*
X66494642Y-77449580D02*
X66447023Y-77497200D01*
X66447023Y-77497200D02*
X66304166Y-77544819D01*
X66304166Y-77544819D02*
X66208928Y-77544819D01*
X66208928Y-77544819D02*
X66066071Y-77497200D01*
X66066071Y-77497200D02*
X65970833Y-77401961D01*
X65970833Y-77401961D02*
X65923214Y-77306723D01*
X65923214Y-77306723D02*
X65875595Y-77116247D01*
X65875595Y-77116247D02*
X65875595Y-76973390D01*
X65875595Y-76973390D02*
X65923214Y-76782914D01*
X65923214Y-76782914D02*
X65970833Y-76687676D01*
X65970833Y-76687676D02*
X66066071Y-76592438D01*
X66066071Y-76592438D02*
X66208928Y-76544819D01*
X66208928Y-76544819D02*
X66304166Y-76544819D01*
X66304166Y-76544819D02*
X66447023Y-76592438D01*
X66447023Y-76592438D02*
X66494642Y-76640057D01*
X66827976Y-76544819D02*
X67447023Y-76544819D01*
X67447023Y-76544819D02*
X67113690Y-76925771D01*
X67113690Y-76925771D02*
X67256547Y-76925771D01*
X67256547Y-76925771D02*
X67351785Y-76973390D01*
X67351785Y-76973390D02*
X67399404Y-77021009D01*
X67399404Y-77021009D02*
X67447023Y-77116247D01*
X67447023Y-77116247D02*
X67447023Y-77354342D01*
X67447023Y-77354342D02*
X67399404Y-77449580D01*
X67399404Y-77449580D02*
X67351785Y-77497200D01*
X67351785Y-77497200D02*
X67256547Y-77544819D01*
X67256547Y-77544819D02*
X66970833Y-77544819D01*
X66970833Y-77544819D02*
X66875595Y-77497200D01*
X66875595Y-77497200D02*
X66827976Y-77449580D01*
X68304166Y-76544819D02*
X68113690Y-76544819D01*
X68113690Y-76544819D02*
X68018452Y-76592438D01*
X68018452Y-76592438D02*
X67970833Y-76640057D01*
X67970833Y-76640057D02*
X67875595Y-76782914D01*
X67875595Y-76782914D02*
X67827976Y-76973390D01*
X67827976Y-76973390D02*
X67827976Y-77354342D01*
X67827976Y-77354342D02*
X67875595Y-77449580D01*
X67875595Y-77449580D02*
X67923214Y-77497200D01*
X67923214Y-77497200D02*
X68018452Y-77544819D01*
X68018452Y-77544819D02*
X68208928Y-77544819D01*
X68208928Y-77544819D02*
X68304166Y-77497200D01*
X68304166Y-77497200D02*
X68351785Y-77449580D01*
X68351785Y-77449580D02*
X68399404Y-77354342D01*
X68399404Y-77354342D02*
X68399404Y-77116247D01*
X68399404Y-77116247D02*
X68351785Y-77021009D01*
X68351785Y-77021009D02*
X68304166Y-76973390D01*
X68304166Y-76973390D02*
X68208928Y-76925771D01*
X68208928Y-76925771D02*
X68018452Y-76925771D01*
X68018452Y-76925771D02*
X67923214Y-76973390D01*
X67923214Y-76973390D02*
X67875595Y-77021009D01*
X67875595Y-77021009D02*
X67827976Y-77116247D01*
X66494642Y-74939580D02*
X66447023Y-74987200D01*
X66447023Y-74987200D02*
X66304166Y-75034819D01*
X66304166Y-75034819D02*
X66208928Y-75034819D01*
X66208928Y-75034819D02*
X66066071Y-74987200D01*
X66066071Y-74987200D02*
X65970833Y-74891961D01*
X65970833Y-74891961D02*
X65923214Y-74796723D01*
X65923214Y-74796723D02*
X65875595Y-74606247D01*
X65875595Y-74606247D02*
X65875595Y-74463390D01*
X65875595Y-74463390D02*
X65923214Y-74272914D01*
X65923214Y-74272914D02*
X65970833Y-74177676D01*
X65970833Y-74177676D02*
X66066071Y-74082438D01*
X66066071Y-74082438D02*
X66208928Y-74034819D01*
X66208928Y-74034819D02*
X66304166Y-74034819D01*
X66304166Y-74034819D02*
X66447023Y-74082438D01*
X66447023Y-74082438D02*
X66494642Y-74130057D01*
X66827976Y-74034819D02*
X67447023Y-74034819D01*
X67447023Y-74034819D02*
X67113690Y-74415771D01*
X67113690Y-74415771D02*
X67256547Y-74415771D01*
X67256547Y-74415771D02*
X67351785Y-74463390D01*
X67351785Y-74463390D02*
X67399404Y-74511009D01*
X67399404Y-74511009D02*
X67447023Y-74606247D01*
X67447023Y-74606247D02*
X67447023Y-74844342D01*
X67447023Y-74844342D02*
X67399404Y-74939580D01*
X67399404Y-74939580D02*
X67351785Y-74987200D01*
X67351785Y-74987200D02*
X67256547Y-75034819D01*
X67256547Y-75034819D02*
X66970833Y-75034819D01*
X66970833Y-75034819D02*
X66875595Y-74987200D01*
X66875595Y-74987200D02*
X66827976Y-74939580D01*
X68351785Y-74034819D02*
X67875595Y-74034819D01*
X67875595Y-74034819D02*
X67827976Y-74511009D01*
X67827976Y-74511009D02*
X67875595Y-74463390D01*
X67875595Y-74463390D02*
X67970833Y-74415771D01*
X67970833Y-74415771D02*
X68208928Y-74415771D01*
X68208928Y-74415771D02*
X68304166Y-74463390D01*
X68304166Y-74463390D02*
X68351785Y-74511009D01*
X68351785Y-74511009D02*
X68399404Y-74606247D01*
X68399404Y-74606247D02*
X68399404Y-74844342D01*
X68399404Y-74844342D02*
X68351785Y-74939580D01*
X68351785Y-74939580D02*
X68304166Y-74987200D01*
X68304166Y-74987200D02*
X68208928Y-75034819D01*
X68208928Y-75034819D02*
X67970833Y-75034819D01*
X67970833Y-75034819D02*
X67875595Y-74987200D01*
X67875595Y-74987200D02*
X67827976Y-74939580D01*
X66494642Y-72429580D02*
X66447023Y-72477200D01*
X66447023Y-72477200D02*
X66304166Y-72524819D01*
X66304166Y-72524819D02*
X66208928Y-72524819D01*
X66208928Y-72524819D02*
X66066071Y-72477200D01*
X66066071Y-72477200D02*
X65970833Y-72381961D01*
X65970833Y-72381961D02*
X65923214Y-72286723D01*
X65923214Y-72286723D02*
X65875595Y-72096247D01*
X65875595Y-72096247D02*
X65875595Y-71953390D01*
X65875595Y-71953390D02*
X65923214Y-71762914D01*
X65923214Y-71762914D02*
X65970833Y-71667676D01*
X65970833Y-71667676D02*
X66066071Y-71572438D01*
X66066071Y-71572438D02*
X66208928Y-71524819D01*
X66208928Y-71524819D02*
X66304166Y-71524819D01*
X66304166Y-71524819D02*
X66447023Y-71572438D01*
X66447023Y-71572438D02*
X66494642Y-71620057D01*
X66827976Y-71524819D02*
X67447023Y-71524819D01*
X67447023Y-71524819D02*
X67113690Y-71905771D01*
X67113690Y-71905771D02*
X67256547Y-71905771D01*
X67256547Y-71905771D02*
X67351785Y-71953390D01*
X67351785Y-71953390D02*
X67399404Y-72001009D01*
X67399404Y-72001009D02*
X67447023Y-72096247D01*
X67447023Y-72096247D02*
X67447023Y-72334342D01*
X67447023Y-72334342D02*
X67399404Y-72429580D01*
X67399404Y-72429580D02*
X67351785Y-72477200D01*
X67351785Y-72477200D02*
X67256547Y-72524819D01*
X67256547Y-72524819D02*
X66970833Y-72524819D01*
X66970833Y-72524819D02*
X66875595Y-72477200D01*
X66875595Y-72477200D02*
X66827976Y-72429580D01*
X68304166Y-71858152D02*
X68304166Y-72524819D01*
X68066071Y-71477200D02*
X67827976Y-72191485D01*
X67827976Y-72191485D02*
X68447023Y-72191485D01*
X66804166Y-82041009D02*
X66470833Y-82041009D01*
X66470833Y-82564819D02*
X66470833Y-81564819D01*
X66470833Y-81564819D02*
X66947023Y-81564819D01*
X67851785Y-82564819D02*
X67280357Y-82564819D01*
X67566071Y-82564819D02*
X67566071Y-81564819D01*
X67566071Y-81564819D02*
X67470833Y-81707676D01*
X67470833Y-81707676D02*
X67375595Y-81802914D01*
X67375595Y-81802914D02*
X67280357Y-81850533D01*
X66494642Y-85074819D02*
X66161309Y-84598628D01*
X65923214Y-85074819D02*
X65923214Y-84074819D01*
X65923214Y-84074819D02*
X66304166Y-84074819D01*
X66304166Y-84074819D02*
X66399404Y-84122438D01*
X66399404Y-84122438D02*
X66447023Y-84170057D01*
X66447023Y-84170057D02*
X66494642Y-84265295D01*
X66494642Y-84265295D02*
X66494642Y-84408152D01*
X66494642Y-84408152D02*
X66447023Y-84503390D01*
X66447023Y-84503390D02*
X66399404Y-84551009D01*
X66399404Y-84551009D02*
X66304166Y-84598628D01*
X66304166Y-84598628D02*
X65923214Y-84598628D01*
X66875595Y-84170057D02*
X66923214Y-84122438D01*
X66923214Y-84122438D02*
X67018452Y-84074819D01*
X67018452Y-84074819D02*
X67256547Y-84074819D01*
X67256547Y-84074819D02*
X67351785Y-84122438D01*
X67351785Y-84122438D02*
X67399404Y-84170057D01*
X67399404Y-84170057D02*
X67447023Y-84265295D01*
X67447023Y-84265295D02*
X67447023Y-84360533D01*
X67447023Y-84360533D02*
X67399404Y-84503390D01*
X67399404Y-84503390D02*
X66827976Y-85074819D01*
X66827976Y-85074819D02*
X67447023Y-85074819D01*
X67780357Y-84074819D02*
X68447023Y-84074819D01*
X68447023Y-84074819D02*
X68018452Y-85074819D01*
X75079405Y-47709819D02*
X75079405Y-46709819D01*
X75079405Y-46709819D02*
X75317500Y-46709819D01*
X75317500Y-46709819D02*
X75460357Y-46757438D01*
X75460357Y-46757438D02*
X75555595Y-46852676D01*
X75555595Y-46852676D02*
X75603214Y-46947914D01*
X75603214Y-46947914D02*
X75650833Y-47138390D01*
X75650833Y-47138390D02*
X75650833Y-47281247D01*
X75650833Y-47281247D02*
X75603214Y-47471723D01*
X75603214Y-47471723D02*
X75555595Y-47566961D01*
X75555595Y-47566961D02*
X75460357Y-47662200D01*
X75460357Y-47662200D02*
X75317500Y-47709819D01*
X75317500Y-47709819D02*
X75079405Y-47709819D01*
X76031786Y-46805057D02*
X76079405Y-46757438D01*
X76079405Y-46757438D02*
X76174643Y-46709819D01*
X76174643Y-46709819D02*
X76412738Y-46709819D01*
X76412738Y-46709819D02*
X76507976Y-46757438D01*
X76507976Y-46757438D02*
X76555595Y-46805057D01*
X76555595Y-46805057D02*
X76603214Y-46900295D01*
X76603214Y-46900295D02*
X76603214Y-46995533D01*
X76603214Y-46995533D02*
X76555595Y-47138390D01*
X76555595Y-47138390D02*
X75984167Y-47709819D01*
X75984167Y-47709819D02*
X76603214Y-47709819D01*
X75079405Y-45119819D02*
X75079405Y-44119819D01*
X75079405Y-44119819D02*
X75317500Y-44119819D01*
X75317500Y-44119819D02*
X75460357Y-44167438D01*
X75460357Y-44167438D02*
X75555595Y-44262676D01*
X75555595Y-44262676D02*
X75603214Y-44357914D01*
X75603214Y-44357914D02*
X75650833Y-44548390D01*
X75650833Y-44548390D02*
X75650833Y-44691247D01*
X75650833Y-44691247D02*
X75603214Y-44881723D01*
X75603214Y-44881723D02*
X75555595Y-44976961D01*
X75555595Y-44976961D02*
X75460357Y-45072200D01*
X75460357Y-45072200D02*
X75317500Y-45119819D01*
X75317500Y-45119819D02*
X75079405Y-45119819D01*
X76603214Y-45119819D02*
X76031786Y-45119819D01*
X76317500Y-45119819D02*
X76317500Y-44119819D01*
X76317500Y-44119819D02*
X76222262Y-44262676D01*
X76222262Y-44262676D02*
X76127024Y-44357914D01*
X76127024Y-44357914D02*
X76031786Y-44405533D01*
X42238095Y-57854819D02*
X42238095Y-58664342D01*
X42238095Y-58664342D02*
X42285714Y-58759580D01*
X42285714Y-58759580D02*
X42333333Y-58807200D01*
X42333333Y-58807200D02*
X42428571Y-58854819D01*
X42428571Y-58854819D02*
X42619047Y-58854819D01*
X42619047Y-58854819D02*
X42714285Y-58807200D01*
X42714285Y-58807200D02*
X42761904Y-58759580D01*
X42761904Y-58759580D02*
X42809523Y-58664342D01*
X42809523Y-58664342D02*
X42809523Y-57854819D01*
X43809523Y-58854819D02*
X43238095Y-58854819D01*
X43523809Y-58854819D02*
X43523809Y-57854819D01*
X43523809Y-57854819D02*
X43428571Y-57997676D01*
X43428571Y-57997676D02*
X43333333Y-58092914D01*
X43333333Y-58092914D02*
X43238095Y-58140533D01*
X76829642Y-39034580D02*
X76782023Y-39082200D01*
X76782023Y-39082200D02*
X76639166Y-39129819D01*
X76639166Y-39129819D02*
X76543928Y-39129819D01*
X76543928Y-39129819D02*
X76401071Y-39082200D01*
X76401071Y-39082200D02*
X76305833Y-38986961D01*
X76305833Y-38986961D02*
X76258214Y-38891723D01*
X76258214Y-38891723D02*
X76210595Y-38701247D01*
X76210595Y-38701247D02*
X76210595Y-38558390D01*
X76210595Y-38558390D02*
X76258214Y-38367914D01*
X76258214Y-38367914D02*
X76305833Y-38272676D01*
X76305833Y-38272676D02*
X76401071Y-38177438D01*
X76401071Y-38177438D02*
X76543928Y-38129819D01*
X76543928Y-38129819D02*
X76639166Y-38129819D01*
X76639166Y-38129819D02*
X76782023Y-38177438D01*
X76782023Y-38177438D02*
X76829642Y-38225057D01*
X77162976Y-38129819D02*
X77782023Y-38129819D01*
X77782023Y-38129819D02*
X77448690Y-38510771D01*
X77448690Y-38510771D02*
X77591547Y-38510771D01*
X77591547Y-38510771D02*
X77686785Y-38558390D01*
X77686785Y-38558390D02*
X77734404Y-38606009D01*
X77734404Y-38606009D02*
X77782023Y-38701247D01*
X77782023Y-38701247D02*
X77782023Y-38939342D01*
X77782023Y-38939342D02*
X77734404Y-39034580D01*
X77734404Y-39034580D02*
X77686785Y-39082200D01*
X77686785Y-39082200D02*
X77591547Y-39129819D01*
X77591547Y-39129819D02*
X77305833Y-39129819D01*
X77305833Y-39129819D02*
X77210595Y-39082200D01*
X77210595Y-39082200D02*
X77162976Y-39034580D01*
X78258214Y-39129819D02*
X78448690Y-39129819D01*
X78448690Y-39129819D02*
X78543928Y-39082200D01*
X78543928Y-39082200D02*
X78591547Y-39034580D01*
X78591547Y-39034580D02*
X78686785Y-38891723D01*
X78686785Y-38891723D02*
X78734404Y-38701247D01*
X78734404Y-38701247D02*
X78734404Y-38320295D01*
X78734404Y-38320295D02*
X78686785Y-38225057D01*
X78686785Y-38225057D02*
X78639166Y-38177438D01*
X78639166Y-38177438D02*
X78543928Y-38129819D01*
X78543928Y-38129819D02*
X78353452Y-38129819D01*
X78353452Y-38129819D02*
X78258214Y-38177438D01*
X78258214Y-38177438D02*
X78210595Y-38225057D01*
X78210595Y-38225057D02*
X78162976Y-38320295D01*
X78162976Y-38320295D02*
X78162976Y-38558390D01*
X78162976Y-38558390D02*
X78210595Y-38653628D01*
X78210595Y-38653628D02*
X78258214Y-38701247D01*
X78258214Y-38701247D02*
X78353452Y-38748866D01*
X78353452Y-38748866D02*
X78543928Y-38748866D01*
X78543928Y-38748866D02*
X78639166Y-38701247D01*
X78639166Y-38701247D02*
X78686785Y-38653628D01*
X78686785Y-38653628D02*
X78734404Y-38558390D01*
X65849978Y-38586009D02*
X65992835Y-38633628D01*
X65992835Y-38633628D02*
X66040454Y-38681247D01*
X66040454Y-38681247D02*
X66088073Y-38776485D01*
X66088073Y-38776485D02*
X66088073Y-38919342D01*
X66088073Y-38919342D02*
X66040454Y-39014580D01*
X66040454Y-39014580D02*
X65992835Y-39062200D01*
X65992835Y-39062200D02*
X65897597Y-39109819D01*
X65897597Y-39109819D02*
X65516645Y-39109819D01*
X65516645Y-39109819D02*
X65516645Y-38109819D01*
X65516645Y-38109819D02*
X65849978Y-38109819D01*
X65849978Y-38109819D02*
X65945216Y-38157438D01*
X65945216Y-38157438D02*
X65992835Y-38205057D01*
X65992835Y-38205057D02*
X66040454Y-38300295D01*
X66040454Y-38300295D02*
X66040454Y-38395533D01*
X66040454Y-38395533D02*
X65992835Y-38490771D01*
X65992835Y-38490771D02*
X65945216Y-38538390D01*
X65945216Y-38538390D02*
X65849978Y-38586009D01*
X65849978Y-38586009D02*
X65516645Y-38586009D01*
X66421407Y-38109819D02*
X67088073Y-38109819D01*
X67088073Y-38109819D02*
X66421407Y-39109819D01*
X66421407Y-39109819D02*
X67088073Y-39109819D01*
X67992835Y-39109819D02*
X67421407Y-39109819D01*
X67707121Y-39109819D02*
X67707121Y-38109819D01*
X67707121Y-38109819D02*
X67611883Y-38252676D01*
X67611883Y-38252676D02*
X67516645Y-38347914D01*
X67516645Y-38347914D02*
X67421407Y-38395533D01*
D11*
%TO.C,J2*%
X182950000Y-83500000D02*
X182950000Y-77700000D01*
X182950000Y-89480000D02*
X182950000Y-86700000D01*
X182950000Y-89480000D02*
X196200000Y-89480000D01*
X193200000Y-74730000D02*
X197700000Y-74730000D01*
X196200000Y-89480000D02*
X196200000Y-89730000D01*
X196200000Y-89730000D02*
X197300000Y-89730000D01*
X197300000Y-89480000D02*
X198000000Y-89480000D01*
X197300000Y-89730000D02*
X197300000Y-89480000D01*
X198000000Y-83500000D02*
X198000000Y-77700000D01*
X198000000Y-89480000D02*
X198000000Y-86700000D01*
D12*
X193320000Y-73000000D02*
G75*
G02*
X193080000Y-73000000I-120000J0D01*
G01*
X193080000Y-73000000D02*
G75*
G02*
X193320000Y-73000000I120000J0D01*
G01*
D11*
%TO.C,J1*%
X161950000Y-83500000D02*
X161950000Y-77700000D01*
X161950000Y-89480000D02*
X161950000Y-86700000D01*
X161950000Y-89480000D02*
X175200000Y-89480000D01*
X172200000Y-74730000D02*
X176700000Y-74730000D01*
X175200000Y-89480000D02*
X175200000Y-89730000D01*
X175200000Y-89730000D02*
X176300000Y-89730000D01*
X176300000Y-89480000D02*
X177000000Y-89480000D01*
X176300000Y-89730000D02*
X176300000Y-89480000D01*
X177000000Y-83500000D02*
X177000000Y-77700000D01*
X177000000Y-89480000D02*
X177000000Y-86700000D01*
D12*
X172320000Y-73000000D02*
G75*
G02*
X172080000Y-73000000I-120000J0D01*
G01*
X172080000Y-73000000D02*
G75*
G02*
X172320000Y-73000000I120000J0D01*
G01*
D13*
%TO.C,U9*%
X72952500Y-60490000D02*
X74772500Y-60490000D01*
X72952500Y-60540000D02*
X72952500Y-60490000D01*
X72952500Y-63610000D02*
X72952500Y-63560000D01*
X74772500Y-60490000D02*
X74772500Y-60540000D01*
X74772500Y-63560000D02*
X74772500Y-63610000D01*
X74772500Y-63610000D02*
X72952500Y-63610000D01*
X72412500Y-60540000D02*
X72172500Y-60210000D01*
X72652500Y-60210000D01*
X72412500Y-60540000D01*
G36*
X72412500Y-60540000D02*
G01*
X72172500Y-60210000D01*
X72652500Y-60210000D01*
X72412500Y-60540000D01*
G37*
%TO.C,C38*%
X66991233Y-80520000D02*
X67283767Y-80520000D01*
X66991233Y-81540000D02*
X67283767Y-81540000D01*
%TO.C,U2*%
X123215000Y-90640000D02*
X124165000Y-90640000D01*
X123215000Y-91590000D02*
X123215000Y-90640000D01*
X123215000Y-114860000D02*
X123215000Y-113910000D01*
X124165000Y-114860000D02*
X123215000Y-114860000D01*
X146485000Y-90640000D02*
X147435000Y-90640000D01*
X147435000Y-90640000D02*
X147435000Y-91590000D01*
X147435000Y-113910000D02*
X147435000Y-114860000D01*
X147435000Y-114860000D02*
X146485000Y-114860000D01*
X122575000Y-91590000D02*
X122235000Y-91120000D01*
X122915000Y-91120000D01*
X122575000Y-91590000D01*
G36*
X122575000Y-91590000D02*
G01*
X122235000Y-91120000D01*
X122915000Y-91120000D01*
X122575000Y-91590000D01*
G37*
%TO.C,D3*%
X75215000Y-85765000D02*
X75215000Y-87235000D01*
X75215000Y-87235000D02*
X77675000Y-87235000D01*
X77675000Y-85765000D02*
X75215000Y-85765000D01*
%TO.C,R28*%
X66882776Y-88037500D02*
X67392224Y-88037500D01*
X66882776Y-89082500D02*
X67392224Y-89082500D01*
%TO.C,J17*%
X68330000Y-97400000D02*
X68330000Y-95700000D01*
X77670000Y-97400000D02*
X77670000Y-95700000D01*
%TO.C,C36*%
X66991233Y-78010000D02*
X67283767Y-78010000D01*
X66991233Y-79030000D02*
X67283767Y-79030000D01*
%TO.C,C35*%
X66991233Y-75500000D02*
X67283767Y-75500000D01*
X66991233Y-76520000D02*
X67283767Y-76520000D01*
%TO.C,C34*%
X66991233Y-72990000D02*
X67283767Y-72990000D01*
X66991233Y-74010000D02*
X67283767Y-74010000D01*
%TO.C,F1*%
X66966233Y-83030000D02*
X67308767Y-83030000D01*
X66966233Y-84050000D02*
X67308767Y-84050000D01*
%TO.C,R27*%
X66882776Y-85527500D02*
X67392224Y-85527500D01*
X66882776Y-86572500D02*
X67392224Y-86572500D01*
%TO.C,D2*%
X74157500Y-47950000D02*
X74157500Y-49420000D01*
X74157500Y-49420000D02*
X76617500Y-49420000D01*
X76617500Y-47950000D02*
X74157500Y-47950000D01*
%TO.C,D1*%
X74157500Y-45360000D02*
X74157500Y-46830000D01*
X74157500Y-46830000D02*
X76617500Y-46830000D01*
X76617500Y-45360000D02*
X74157500Y-45360000D01*
%TO.C,U1*%
X40240000Y-59240000D02*
X45760000Y-59240000D01*
X40240000Y-59510000D02*
X40240000Y-59240000D01*
X40240000Y-64760000D02*
X40240000Y-64490000D01*
X45760000Y-59240000D02*
X45760000Y-59510000D01*
X45760000Y-64490000D02*
X45760000Y-64760000D01*
X45760000Y-64760000D02*
X40240000Y-64760000D01*
X39410000Y-59500000D02*
X39070000Y-59030000D01*
X39750000Y-59030000D01*
X39410000Y-59500000D01*
G36*
X39410000Y-59500000D02*
G01*
X39070000Y-59030000D01*
X39750000Y-59030000D01*
X39410000Y-59500000D01*
G37*
%TO.C,C39*%
X74472500Y-40315000D02*
X74972500Y-40315000D01*
X74722500Y-40065000D02*
X74722500Y-40565000D01*
X75212500Y-40679437D02*
X75212500Y-40815000D01*
X75212500Y-40679437D02*
X76276937Y-39615000D01*
X75212500Y-43070563D02*
X75212500Y-42935000D01*
X75212500Y-43070563D02*
X76276937Y-44135000D01*
X76276937Y-39615000D02*
X79732500Y-39615000D01*
X76276937Y-44135000D02*
X79732500Y-44135000D01*
X79732500Y-39615000D02*
X79732500Y-40815000D01*
X79732500Y-44135000D02*
X79732500Y-42935000D01*
%TO.C,BZ1*%
X60330931Y-47324999D02*
G75*
G02*
X60330931Y-44325000I6400000J1499999D01*
G01*
X72960931Y-45825000D02*
G75*
G02*
X60500931Y-45825000I-6230000J0D01*
G01*
X60500931Y-45825000D02*
G75*
G02*
X72960931Y-45825000I6230000J0D01*
G01*
%TD*%
%LPC*%
D14*
%TO.C,J2*%
X186600000Y-85500000D03*
X193400000Y-85500000D03*
D15*
X192580000Y-74080000D03*
X191480000Y-74080000D03*
X190380000Y-74080000D03*
X189280000Y-74080000D03*
X188180000Y-74080000D03*
X187080000Y-74080000D03*
X185980000Y-74080000D03*
X184880000Y-74080000D03*
X183780000Y-74080000D03*
D16*
X182400000Y-76080000D03*
X182400000Y-85080000D03*
X198550000Y-76080000D03*
X198550000Y-85080000D03*
%TD*%
D14*
%TO.C,J1*%
X165600000Y-85500000D03*
X172400000Y-85500000D03*
D15*
X171580000Y-74080000D03*
X170480000Y-74080000D03*
X169380000Y-74080000D03*
X168280000Y-74080000D03*
X167180000Y-74080000D03*
X166080000Y-74080000D03*
X164980000Y-74080000D03*
X163880000Y-74080000D03*
X162780000Y-74080000D03*
D16*
X161400000Y-76080000D03*
X161400000Y-85080000D03*
X177550000Y-76080000D03*
X177550000Y-85080000D03*
%TD*%
D17*
%TO.C,U9*%
X72725000Y-61100000D03*
X72725000Y-62050000D03*
X72725000Y-63000000D03*
X75000000Y-63000000D03*
X75000000Y-62050000D03*
X75000000Y-61100000D03*
%TD*%
D18*
%TO.C,C38*%
X66275000Y-81030000D03*
X68000000Y-81030000D03*
%TD*%
D19*
%TO.C,U2*%
X122650000Y-92000000D03*
X122650000Y-92500000D03*
X122650000Y-93000000D03*
X122650000Y-93500000D03*
X122650000Y-94000000D03*
X122650000Y-94500000D03*
X122650000Y-95000000D03*
X122650000Y-95500000D03*
X122650000Y-96000000D03*
X122650000Y-96500000D03*
X122650000Y-97000000D03*
X122650000Y-97500000D03*
X122650000Y-98000000D03*
X122650000Y-98500000D03*
X122650000Y-99000000D03*
X122650000Y-99500000D03*
X122650000Y-100000000D03*
X122650000Y-100500000D03*
X122650000Y-101000000D03*
X122650000Y-101500000D03*
X122650000Y-102000000D03*
X122650000Y-102500000D03*
X122650000Y-103000000D03*
X122650000Y-103500000D03*
X122650000Y-104000000D03*
X122650000Y-104500000D03*
X122650000Y-105000000D03*
X122650000Y-105500000D03*
X122650000Y-106000000D03*
X122650000Y-106500000D03*
X122650000Y-107000000D03*
X122650000Y-107500000D03*
X122650000Y-108000000D03*
X122650000Y-108500000D03*
X122650000Y-109000000D03*
X122650000Y-109500000D03*
X122650000Y-110000000D03*
X122650000Y-110500000D03*
X122650000Y-111000000D03*
X122650000Y-111500000D03*
X122650000Y-112000000D03*
X122650000Y-112500000D03*
X122650000Y-113000000D03*
X122650000Y-113500000D03*
D20*
X124575000Y-115425000D03*
X125075000Y-115425000D03*
X125575000Y-115425000D03*
X126075000Y-115425000D03*
X126575000Y-115425000D03*
X127075000Y-115425000D03*
X127575000Y-115425000D03*
X128075000Y-115425000D03*
X128575000Y-115425000D03*
X129075000Y-115425000D03*
X129575000Y-115425000D03*
X130075000Y-115425000D03*
X130575000Y-115425000D03*
X131075000Y-115425000D03*
X131575000Y-115425000D03*
X132075000Y-115425000D03*
X132575000Y-115425000D03*
X133075000Y-115425000D03*
X133575000Y-115425000D03*
X134075000Y-115425000D03*
X134575000Y-115425000D03*
X135075000Y-115425000D03*
X135575000Y-115425000D03*
X136075000Y-115425000D03*
X136575000Y-115425000D03*
X137075000Y-115425000D03*
X137575000Y-115425000D03*
X138075000Y-115425000D03*
X138575000Y-115425000D03*
X139075000Y-115425000D03*
X139575000Y-115425000D03*
X140075000Y-115425000D03*
X140575000Y-115425000D03*
X141075000Y-115425000D03*
X141575000Y-115425000D03*
X142075000Y-115425000D03*
X142575000Y-115425000D03*
X143075000Y-115425000D03*
X143575000Y-115425000D03*
X144075000Y-115425000D03*
X144575000Y-115425000D03*
X145075000Y-115425000D03*
X145575000Y-115425000D03*
X146075000Y-115425000D03*
D19*
X148000000Y-113500000D03*
X148000000Y-113000000D03*
X148000000Y-112500000D03*
X148000000Y-112000000D03*
X148000000Y-111500000D03*
X148000000Y-111000000D03*
X148000000Y-110500000D03*
X148000000Y-110000000D03*
X148000000Y-109500000D03*
X148000000Y-109000000D03*
X148000000Y-108500000D03*
X148000000Y-108000000D03*
X148000000Y-107500000D03*
X148000000Y-107000000D03*
X148000000Y-106500000D03*
X148000000Y-106000000D03*
X148000000Y-105500000D03*
X148000000Y-105000000D03*
X148000000Y-104500000D03*
X148000000Y-104000000D03*
X148000000Y-103500000D03*
X148000000Y-103000000D03*
X148000000Y-102500000D03*
X148000000Y-102000000D03*
X148000000Y-101500000D03*
X148000000Y-101000000D03*
X148000000Y-100500000D03*
X148000000Y-100000000D03*
X148000000Y-99500000D03*
X148000000Y-99000000D03*
X148000000Y-98500000D03*
X148000000Y-98000000D03*
X148000000Y-97500000D03*
X148000000Y-97000000D03*
X148000000Y-96500000D03*
X148000000Y-96000000D03*
X148000000Y-95500000D03*
X148000000Y-95000000D03*
X148000000Y-94500000D03*
X148000000Y-94000000D03*
X148000000Y-93500000D03*
X148000000Y-93000000D03*
X148000000Y-92500000D03*
X148000000Y-92000000D03*
D20*
X146075000Y-90075000D03*
X145575000Y-90075000D03*
X145075000Y-90075000D03*
X144575000Y-90075000D03*
X144075000Y-90075000D03*
X143575000Y-90075000D03*
X143075000Y-90075000D03*
X142575000Y-90075000D03*
X142075000Y-90075000D03*
X141575000Y-90075000D03*
X141075000Y-90075000D03*
X140575000Y-90075000D03*
X140075000Y-90075000D03*
X139575000Y-90075000D03*
X139075000Y-90075000D03*
X138575000Y-90075000D03*
X138075000Y-90075000D03*
X137575000Y-90075000D03*
X137075000Y-90075000D03*
X136575000Y-90075000D03*
X136075000Y-90075000D03*
X135575000Y-90075000D03*
X135075000Y-90075000D03*
X134575000Y-90075000D03*
X134075000Y-90075000D03*
X133575000Y-90075000D03*
X133075000Y-90075000D03*
X132575000Y-90075000D03*
X132075000Y-90075000D03*
X131575000Y-90075000D03*
X131075000Y-90075000D03*
X130575000Y-90075000D03*
X130075000Y-90075000D03*
X129575000Y-90075000D03*
X129075000Y-90075000D03*
X128575000Y-90075000D03*
X128075000Y-90075000D03*
X127575000Y-90075000D03*
X127075000Y-90075000D03*
X126575000Y-90075000D03*
X126075000Y-90075000D03*
X125575000Y-90075000D03*
X125075000Y-90075000D03*
X124575000Y-90075000D03*
%TD*%
D21*
%TO.C,D3*%
X76000000Y-86500000D03*
X77750000Y-86500000D03*
%TD*%
D22*
%TO.C,R28*%
X66225000Y-88560000D03*
X68050000Y-88560000D03*
%TD*%
D23*
%TO.C,J17*%
X70110000Y-94895000D03*
X75890000Y-94895000D03*
D24*
X69800000Y-93820000D03*
X70600000Y-93820000D03*
D25*
X71750000Y-93820000D03*
X72750000Y-93820000D03*
X73250000Y-93820000D03*
X74250000Y-93820000D03*
D24*
X75400000Y-93820000D03*
X76200000Y-93820000D03*
X76200000Y-93820000D03*
X75400000Y-93820000D03*
D25*
X74750000Y-93820000D03*
X73750000Y-93820000D03*
X72250000Y-93820000D03*
X71250000Y-93820000D03*
D24*
X70600000Y-93820000D03*
X69800000Y-93820000D03*
D26*
X68680000Y-94395000D03*
D27*
X68680000Y-98575000D03*
D26*
X77320000Y-94395000D03*
D27*
X77320000Y-98575000D03*
%TD*%
D18*
%TO.C,C36*%
X66275000Y-78520000D03*
X68000000Y-78520000D03*
%TD*%
%TO.C,C35*%
X66275000Y-76010000D03*
X68000000Y-76010000D03*
%TD*%
%TO.C,C34*%
X66275000Y-73500000D03*
X68000000Y-73500000D03*
%TD*%
D21*
%TO.C,F1*%
X66262500Y-83540000D03*
X68012500Y-83540000D03*
%TD*%
D22*
%TO.C,R27*%
X66225000Y-86050000D03*
X68050000Y-86050000D03*
%TD*%
D21*
%TO.C,D2*%
X74942500Y-48685000D03*
X76692500Y-48685000D03*
%TD*%
%TO.C,D1*%
X74942500Y-46095000D03*
X76692500Y-46095000D03*
%TD*%
D28*
%TO.C,U1*%
X39412500Y-60095000D03*
X39412500Y-61365000D03*
X39412500Y-62635000D03*
X39412500Y-63905000D03*
X46587500Y-63905000D03*
X46587500Y-62635000D03*
X46587500Y-61365000D03*
X46587500Y-60095000D03*
%TD*%
D29*
%TO.C,C39*%
X75672500Y-41875000D03*
X79272500Y-41875000D03*
%TD*%
D30*
%TO.C,BZ1*%
X64230931Y-45825000D03*
D31*
X69230931Y-45825000D03*
%TD*%
%LPD*%
M02*
